<svg width="19" height="15" viewBox="0 0 19 15" fill="none" xmlns="http://www.w3.org/2000/svg">
<path d="M18.428 2.40683C17.7381 2.6889 17.0064 2.87415 16.2573 2.95645C17.0469 2.51995 17.6379 1.83299 17.9201 1.02358C17.1791 1.4312 16.3667 1.71687 15.5199 1.8714C14.9511 1.3089 14.1972 0.935843 13.3754 0.810233C12.5535 0.684623 11.7098 0.813496 10.9754 1.17682C10.241 1.54014 9.65701 2.11755 9.31426 2.81929C8.97151 3.52103 8.88918 4.30777 9.08009 5.05722C7.57733 4.9876 6.10721 4.62664 4.76517 3.99778C3.42313 3.36892 2.23917 2.48622 1.29017 1.40698C0.954252 1.94027 0.777727 2.54651 0.778672 3.1636C0.778672 4.37478 1.44561 5.44479 2.45956 6.07126C1.85951 6.0538 1.27267 5.90402 0.747946 5.6344V5.67784C0.748127 6.48448 1.05012 7.26625 1.60271 7.89058C2.15531 8.51492 2.9245 8.9434 3.77987 9.10338C3.22284 9.24291 2.63877 9.26347 2.07187 9.16352C2.31304 9.85785 2.78309 10.4651 3.41621 10.9002C4.04934 11.3353 4.81382 11.5765 5.60264 11.5901C4.81866 12.1592 3.92101 12.5799 2.96101 12.8281C2.00101 13.0763 0.997483 13.1473 0.0078125 13.0368C1.73542 14.0637 3.74652 14.6089 5.80055 14.6071C12.7527 14.6071 16.5546 9.2838 16.5546 4.66713C16.5546 4.51678 16.5501 4.36476 16.5429 4.21607C17.2829 3.72172 17.9216 3.10933 18.4289 2.40766L18.428 2.40683Z" fill="white"/>
</svg>
