<svg width="19" height="14" viewBox="0 0 19 14" fill="none" xmlns="http://www.w3.org/2000/svg">
<path d="M18.0244 2.11012C18.4374 3.59862 18.4374 6.70591 18.4374 6.70591C18.4374 6.70591 18.4374 9.81321 18.0244 11.3017C17.7948 12.1245 17.1234 12.7718 16.273 12.9907C14.7286 13.3883 9.40032 13.3883 9.40032 13.3883C9.40032 13.3883 4.07479 13.3883 2.52765 12.9907C1.67365 12.7685 1.0031 12.122 0.776274 11.3017C0.363281 9.81321 0.363281 6.70591 0.363281 6.70591C0.363281 6.70591 0.363281 3.59862 0.776274 2.11012C1.00581 1.28736 1.67727 0.640007 2.52765 0.42116C4.07479 0.0235594 9.40032 0.0235596 9.40032 0.0235596C9.40032 0.0235596 14.7286 0.0235594 16.273 0.42116C17.127 0.643348 17.7975 1.28987 18.0244 2.11012ZM7.59291 9.62944L13.0151 6.70591L7.59291 3.78238V9.62944Z" fill="white"/>
</svg>
