<svg width="21" height="13" viewBox="0 0 21 13" fill="none" xmlns="http://www.w3.org/2000/svg">
<path d="M6.28203 0.798462C6.8595 0.798462 7.39359 0.840227 7.88159 0.96385C8.32442 1.03906 8.74711 1.19341 9.12599 1.41825C9.48205 1.62457 9.74864 1.91442 9.92577 2.28612C10.1038 2.65783 10.1924 3.11306 10.1924 3.60839C10.1924 4.18725 10.0595 4.68258 9.74864 5.05429C9.48205 5.42683 9.03743 5.75677 8.50424 6.00485C9.25974 6.21201 9.83721 6.58371 10.1924 7.07904C10.5484 7.57521 10.7707 8.19499 10.7707 8.89748C10.7707 9.47633 10.637 9.97166 10.4147 10.3851C10.1924 10.7986 9.8372 11.1703 9.43686 11.4184C9.00199 11.6843 8.52127 11.8798 8.01534 11.9964C7.48215 12.1209 6.94897 12.2036 6.41578 12.2036H0.459473V0.798462H6.28203ZM5.92598 5.42599C6.41488 5.42599 6.81522 5.30237 7.12609 5.09605C7.43697 4.88973 7.57072 4.51719 7.57072 4.06279C7.57072 3.81471 7.52553 3.56663 7.43697 3.40207C7.34841 3.23669 7.21466 3.11223 7.03753 2.9886C6.8595 2.90591 6.68147 2.82322 6.45916 2.78229C6.23685 2.74052 6.01544 2.74052 5.74795 2.74052H3.17058V5.42683H5.92688L5.92598 5.42599ZM6.05972 10.3024C6.32632 10.3024 6.59291 10.2607 6.81522 10.2197C7.03968 10.1803 7.25196 10.0956 7.43697 9.97167C7.61806 9.85074 7.76955 9.69591 7.88159 9.51726C7.97015 9.31095 8.05962 9.06286 8.05962 8.77385C8.05962 8.19499 7.88159 7.78152 7.52643 7.49251C7.17038 7.24443 6.68147 7.1208 6.10401 7.1208H3.17058V10.3033H6.05972V10.3024ZM14.6377 10.2607C14.9928 10.5915 15.526 10.7568 16.2372 10.7568C16.7261 10.7568 17.1708 10.6332 17.5259 10.4269C17.882 10.1788 18.1043 9.93073 18.1928 9.68265H20.3708C20.0147 10.6741 19.4815 11.3766 18.7712 11.831C18.0591 12.2445 17.215 12.4926 16.193 12.4926C15.539 12.4944 14.8906 12.3822 14.2816 12.1618C13.7337 11.9718 13.2451 11.6596 12.8592 11.253C12.4465 10.8726 12.1414 10.4041 11.9708 9.88897C11.7485 9.35188 11.6591 8.77385 11.6591 8.1123C11.6591 7.49251 11.7485 6.91449 11.9708 6.37656C12.1846 5.85875 12.5009 5.38229 12.9035 4.97159C13.3038 4.59989 13.7927 4.26995 14.3259 4.06279C14.9194 3.84233 15.5534 3.73001 16.193 3.73202C16.9484 3.73202 17.6154 3.85647 18.1928 4.14549C18.7712 4.4345 19.2149 4.76527 19.571 5.26144C19.9342 5.738 20.2048 6.26939 20.3708 6.83179C20.4593 7.40982 20.5036 7.98868 20.4593 8.64939H14.015C14.015 9.31095 14.2816 9.93074 14.6377 10.2615V10.2607ZM17.4374 5.92216C17.1265 5.63315 16.6376 5.46776 16.0592 5.46776C15.6598 5.46776 15.348 5.55045 15.0814 5.67408C14.8148 5.79853 14.6377 5.96392 14.4597 6.12931C14.2961 6.28907 14.1878 6.49034 14.1488 6.70733C14.1036 6.91449 14.0593 7.07904 14.0593 7.24443H18.0591C17.9705 6.62464 17.7482 6.21201 17.4374 5.92216ZM13.5261 1.58364H18.5037V2.69959H13.527V1.58364H13.5261Z" fill="white"/>
</svg>
