<svg width="19" height="17" viewBox="0 0 19 17" fill="none" xmlns="http://www.w3.org/2000/svg">
<path d="M16.4642 7.99556C16.3902 6.68073 15.8954 5.41584 15.0427 4.36119C14.7829 4.61982 14.5052 4.86257 14.2113 5.0879C13.3084 5.78106 12.2995 6.34685 11.2173 6.76684C11.3683 7.05919 11.5065 7.34236 11.6285 7.60965V7.61216C11.6629 7.68684 11.6961 7.76203 11.7279 7.83769C13.0961 7.69569 14.5385 7.74748 15.9365 7.92205C16.1226 7.94544 16.298 7.9705 16.4642 7.99556ZM7.98299 1.77262C8.86368 2.91962 9.67581 4.1103 10.4158 5.33932C11.521 4.93671 12.4346 4.42885 13.1702 3.86336C13.4256 3.66884 13.666 3.45812 13.8896 3.23271C12.5891 2.22177 10.9438 1.66848 9.24456 1.67071C8.82165 1.67044 8.39953 1.70426 7.98299 1.77178V1.77262ZM2.24356 6.67997C2.85919 6.66561 3.47409 6.63134 4.08712 6.57723C5.56887 6.45473 7.03796 6.22515 8.48093 5.89062C7.7268 4.67962 6.9126 3.50143 6.04093 2.35983C5.10986 2.78616 4.28888 3.39259 3.63368 4.13799C2.97848 4.88339 2.50439 5.75032 2.24356 6.67997ZM3.62623 12.5588C3.97687 12.0852 4.43776 11.5522 5.04956 10.9725C6.36355 9.72796 7.9143 8.75902 9.70906 8.22443L9.76509 8.20939C9.61598 7.90535 9.4759 7.63388 9.33493 7.37828C7.67573 7.82516 5.92796 8.10415 4.18653 8.24865C3.33704 8.31965 2.57522 8.35056 2.01493 8.35557C2.01333 9.88632 2.58272 11.3708 3.62713 12.5588H3.62623ZM11.9602 14.5468C11.6117 12.9223 11.1184 11.3273 10.4853 9.77808C8.67613 10.3853 7.23472 11.2733 6.12045 12.3324C5.67077 12.752 5.27171 13.2156 4.93027 13.7148C6.17631 14.5742 7.68989 15.0375 9.24456 15.0354C10.1753 15.0366 11.0975 14.8713 11.9602 14.5484V14.5468ZM13.6528 13.6488C15.0637 12.6463 16.0249 11.1978 16.3522 9.58095C16.0449 9.50995 15.6554 9.43895 15.2271 9.38382C14.2747 9.25705 13.3083 9.24778 12.3533 9.35625C12.8911 10.7586 13.3252 12.193 13.6528 13.6497V13.6488ZM9.24456 16.706C4.2534 16.706 0.20752 12.9664 0.20752 8.35306C0.20752 3.73973 4.2534 0.00012207 9.24456 0.00012207C14.2357 0.00012207 18.2816 3.73973 18.2816 8.35306C18.2816 12.9664 14.2357 16.706 9.24456 16.706Z" fill="white"/>
</svg>
