<svg width="19" height="18" viewBox="0 0 19 18" fill="none" xmlns="http://www.w3.org/2000/svg">
<path d="M9.24456 0.705933C11.6999 0.705933 12.0063 0.714286 12.9696 0.75605C13.9321 0.797815 14.5872 0.937309 15.1638 1.14446C15.7603 1.35663 16.2627 1.64397 16.7652 2.10756C17.2247 2.52512 17.5803 3.03021 17.8071 3.5877C18.0304 4.11978 18.1822 4.7262 18.2274 5.61579C18.2698 6.50621 18.2816 6.78938 18.2816 9.05887C18.2816 11.3284 18.2726 11.6115 18.2274 12.502C18.1822 13.3915 18.0304 13.9971 17.8071 14.53C17.5809 15.0878 17.2253 15.5931 16.7652 16.0102C16.3133 16.4348 15.7669 16.7634 15.1638 16.9733C14.5882 17.1796 13.9321 17.3199 12.9696 17.3617C12.0063 17.401 11.6999 17.4118 9.24456 17.4118C6.78919 17.4118 6.48284 17.4035 5.51949 17.3617C4.55704 17.3199 3.90186 17.1796 3.3253 16.9733C2.72192 16.764 2.17536 16.4353 1.72393 16.0102C1.26432 15.5927 0.908731 15.0876 0.681964 14.53C0.457846 13.998 0.306927 13.3915 0.261742 12.502C0.219268 11.6115 0.20752 11.3284 0.20752 9.05887C0.20752 6.78938 0.216557 6.50621 0.261742 5.61579C0.306927 4.72537 0.457846 4.12061 0.681964 3.5877C0.908103 3.02987 1.26377 2.52464 1.72393 2.10756C2.17549 1.68258 2.72201 1.35389 3.3253 1.14446C3.90186 0.937309 4.55614 0.797815 5.51949 0.75605C6.48284 0.716791 6.78919 0.705933 9.24456 0.705933ZM9.24456 4.8824C8.04617 4.8824 6.89687 5.32242 6.04948 6.10566C5.20209 6.8889 4.72604 7.9512 4.72604 9.05887C4.72604 10.1665 5.20209 11.2288 6.04948 12.0121C6.89687 12.7953 8.04617 13.2353 9.24456 13.2353C10.4429 13.2353 11.5922 12.7953 12.4396 12.0121C13.287 11.2288 13.7631 10.1665 13.7631 9.05887C13.7631 7.9512 13.287 6.8889 12.4396 6.10566C11.5922 5.32242 10.4429 4.8824 9.24456 4.8824ZM15.1186 4.67358C15.1186 4.39666 14.9996 4.13109 14.7878 3.93528C14.5759 3.73947 14.2886 3.62946 13.989 3.62946C13.6894 3.62946 13.4021 3.73947 13.1902 3.93528C12.9784 4.13109 12.8594 4.39666 12.8594 4.67358C12.8594 4.9505 12.9784 5.21607 13.1902 5.41188C13.4021 5.60769 13.6894 5.7177 13.989 5.7177C14.2886 5.7177 14.5759 5.60769 14.7878 5.41188C14.9996 5.21607 15.1186 4.9505 15.1186 4.67358ZM9.24456 6.55299C9.96359 6.55299 10.6532 6.817 11.1616 7.28695C11.67 7.75689 11.9557 8.39427 11.9557 9.05887C11.9557 9.72348 11.67 10.3609 11.1616 10.8308C10.6532 11.3007 9.96359 11.5648 9.24456 11.5648C8.52552 11.5648 7.83594 11.3007 7.32751 10.8308C6.81908 10.3609 6.53344 9.72348 6.53344 9.05887C6.53344 8.39427 6.81908 7.75689 7.32751 7.28695C7.83594 6.817 8.52552 6.55299 9.24456 6.55299Z" fill="white"/>
</svg>
